HIERARCHY
ROOT hip
{
  OFFSET 2.52632 82.0174 56.7274
  CHANNELS 6 Xposition Yposition Zposition Zrotation Xrotation Yrotation
  JOINT abdomen
  {
    OFFSET 0 20.6881 -0.73152
    CHANNELS 3 Zrotation Xrotation Yrotation
    JOINT chest
    {
      OFFSET 0 11.7043 -0.48768
      CHANNELS 3 Zrotation Xrotation Yrotation
      JOINT neck
      {
        OFFSET 0 22.1894 -2.19456
        CHANNELS 3 Zrotation Xrotation Yrotation
        JOINT head
        {
          OFFSET -0.24384 7.07133 1.2192
          CHANNELS 3 Zrotation Xrotation Yrotation
          JOINT leftEye
          {
            OFFSET 4.14528 8.04674 8.04672
            CHANNELS 3 Zrotation Xrotation Yrotation
            End Site
            {
              OFFSET 1 0 0
            }
          }
          JOINT rightEye
          {
            OFFSET -3.6576 8.04674 8.04672
            CHANNELS 3 Zrotation Xrotation Yrotation
            End Site
            {
              OFFSET 1 0 0
            }
          }
        }
      }
      JOINT rCollar
      {
        OFFSET -2.68224 19.2634 -4.8768
        CHANNELS 3 Zrotation Xrotation Yrotation
        JOINT rShldr
        {
          OFFSET -8.77824 -1.95073 1.46304
          CHANNELS 3 Zrotation Xrotation Yrotation
          JOINT rForeArm
          {
            OFFSET -28.1742 -1.7115 0.48768
            CHANNELS 3 Zrotation Xrotation Yrotation
            JOINT rHand
            {
              OFFSET -22.5879 0.773209 7.07136
              CHANNELS 3 Zrotation Xrotation Yrotation
              JOINT rThumb1
              {
                OFFSET -1.2192 -0.487915 3.41376
                CHANNELS 3 Zrotation Xrotation Yrotation
                JOINT rThumb2
                {
                  OFFSET -3.37035 -0.52449 3.41376
                  CHANNELS 3 Zrotation Xrotation Yrotation
                  End Site
                  {
                    OFFSET -1.78271 -1.18214 1.43049
                  }
                }
              }
              JOINT rIndex1
              {
                OFFSET -7.75947 0.938293 5.60832
                CHANNELS 3 Zrotation Xrotation Yrotation
                JOINT rIndex2
                {
                  OFFSET -2.54057 -0.884171 1.56538
                  CHANNELS 3 Zrotation Xrotation Yrotation
                  End Site
                  {
                    OFFSET -1.62519 -0.234802 1.16502
                  }
                }
              }
              JOINT rMid1
              {
                OFFSET -8.24714 1.18213 3.41376
                CHANNELS 3 Zrotation Xrotation Yrotation
                JOINT rMid2
                {
                  OFFSET -3.10165 -0.590103 1.0647
                  CHANNELS 3 Zrotation Xrotation Yrotation
                  End Site
                  {
                    OFFSET -2.48547 -0.328903 0.83742
                  }
                }
              }
              JOINT rRing1
              {
                OFFSET -8.82822 0.546677 1.51678
                CHANNELS 3 Zrotation Xrotation Yrotation
                JOINT rRing2
                {
                  OFFSET -2.60934 -0.819778 -0.0198488
                  CHANNELS 3 Zrotation Xrotation Yrotation
                  End Site
                  {
                    OFFSET -2.33842 -0.294052 0.168128
                  }
                }
              }
              JOINT rPinky1
              {
                OFFSET -8.27202 -0.0477905 -0.4584
                CHANNELS 3 Zrotation Xrotation Yrotation
                JOINT rPinky2
                {
                  OFFSET -1.82734 -0.647385 -0.700984
                  CHANNELS 3 Zrotation Xrotation Yrotation
                  End Site
                  {
                    OFFSET -1.69225 -0.51767 -0.607171
                  }
                }
              }
            }
          }
        }
      }
      JOINT lCollar
      {
        OFFSET 2.68224 19.2634 -4.8768
        CHANNELS 3 Zrotation Xrotation Yrotation
        JOINT lShldr
        {
          OFFSET 8.77824 -1.95073 1.46304
          CHANNELS 3 Zrotation Xrotation Yrotation
          JOINT lForeArm
          {
            OFFSET 28.1742 -1.7115 0.48768
            CHANNELS 3 Zrotation Xrotation Yrotation
            JOINT lHand
            {
              OFFSET 22.5879 0.773209 7.07136
              CHANNELS 3 Zrotation Xrotation Yrotation
              JOINT lThumb1
              {
                OFFSET 1.2192 -0.487915 3.41376
                CHANNELS 3 Zrotation Xrotation Yrotation
                JOINT lThumb2
                {
                  OFFSET 3.37035 -0.52449 3.41376
                  CHANNELS 3 Zrotation Xrotation Yrotation
                  End Site
                  {
                    OFFSET 1.78271 -1.18214 1.43049
                  }
                }
              }
              JOINT lIndex1
              {
                OFFSET 7.75947 0.938293 5.60832
                CHANNELS 3 Zrotation Xrotation Yrotation
                JOINT lIndex2
                {
                  OFFSET 2.54057 -0.884171 1.56538
                  CHANNELS 3 Zrotation Xrotation Yrotation
                  End Site
                  {
                    OFFSET 1.62519 -0.234802 1.16502
                  }
                }
              }
              JOINT lMid1
              {
                OFFSET 8.24714 1.18213 3.41376
                CHANNELS 3 Zrotation Xrotation Yrotation
                JOINT lMid2
                {
                  OFFSET 3.10165 -0.590103 1.0647
                  CHANNELS 3 Zrotation Xrotation Yrotation
                  End Site
                  {
                    OFFSET 2.48547 -0.328903 0.83742
                  }
                }
              }
              JOINT lRing1
              {
                OFFSET 8.82822 0.546677 1.51678
                CHANNELS 3 Zrotation Xrotation Yrotation
                JOINT lRing2
                {
                  OFFSET 2.60934 -0.819778 -0.0198488
                  CHANNELS 3 Zrotation Xrotation Yrotation
                  End Site
                  {
                    OFFSET 2.33842 -0.294052 0.168128
                  }
                }
              }
              JOINT lPinky1
              {
                OFFSET 8.27202 -0.0477905 -0.4584
                CHANNELS 3 Zrotation Xrotation Yrotation
                JOINT lPinky2
                {
                  OFFSET 1.82734 -0.647385 -0.700984
                  CHANNELS 3 Zrotation Xrotation Yrotation
                  End Site
                  {
                    OFFSET 1.69225 -0.51767 -0.607171
                  }
                }
              }
            }
          }
        }
      }
    }
  }
  JOINT rButtock
  {
    OFFSET -8.77824 4.35084 1.2192
    CHANNELS 3 Zrotation Xrotation Yrotation
    JOINT rThigh
    {
      OFFSET 0 -1.70687 -2.19456
      CHANNELS 3 Zrotation Xrotation Yrotation
      JOINT rShin
      {
        OFFSET 0 -36.8199 0.73152
        CHANNELS 3 Zrotation Xrotation Yrotation
        JOINT rFoot
        {
          OFFSET 0.73152 -45.1104 -5.12064
          CHANNELS 3 Zrotation Xrotation Yrotation
          End Site
          {
            OFFSET -1.1221 -3.69964 12.103
          }
        }
      }
    }
  }
  JOINT lButtock
  {
    OFFSET 8.77824 4.35084 1.2192
    CHANNELS 3 Zrotation Xrotation Yrotation
    JOINT lThigh
    {
      OFFSET 0 -1.70687 -2.19456
      CHANNELS 3 Zrotation Xrotation Yrotation
      JOINT lShin
      {
        OFFSET 0 -36.8199 0.73152
        CHANNELS 3 Zrotation Xrotation Yrotation
        JOINT lFoot
        {
          OFFSET -0.73152 -45.1104 -5.12064
          CHANNELS 3 Zrotation Xrotation Yrotation
          End Site
          {
            OFFSET 1.1221 -3.69964 12.103
          }
        }
      }
    }
  }
}
MOTION
Frames:	8
Frame Time:	0.00833333
2.22364 82.7123 55.8272 -6.96696 2.30863 12.2173 -2.62606 -5.8416 -17.4083 1.05344 -6.44995 -5.12698 -7.28032 9.42319 -10.7897 16.5324 25.5042 -25.1662 -0 0 0 -0 0 0 -5.85542e-014 1.40614e-013 -1.89766e-013 105.518 53.9474 -66.4681 -26.1739 -45.93 95.3959 -1.43931 31.9679 5.03035 -6.94966e-011 -2.66504e-010 4.4214e-011 -1.16597e-010 -4.4996e-010 7.67871e-011 -6.94902e-011 -2.66501e-010 4.41944e-011 7.73091 5.47488 0.417314 -6.94997e-011 -2.66497e-010 4.42131e-011 2.90554 0.965183 0.102902 -6.94876e-011 -2.66479e-010 4.42114e-011 10.2786 0.731801 0.0259123 -6.95014e-011 -2.66499e-010 4.42301e-011 2.22167 -0.733487 -0.20892 -5.87754e-014 1.4064e-013 -1.90022e-013 52.3465 44.8432 -131.946 27.6349 -28.7537 -65.2585 2.77442 -41.9158 7.24546 1.57238e-011 -2.02455e-011 9.31761e-010 -3.65538e-012 -4.03878e-011 1.60937e-009 1.57168e-011 -2.02474e-011 9.31763e-010 -7.73091 5.47488 -0.417314 1.57214e-011 -2.02506e-011 9.31758e-010 -2.90554 0.965183 -0.102902 1.57113e-011 -2.02506e-011 9.3176e-010 -10.2786 0.731801 -0.0259123 1.57223e-011 -2.02535e-011 9.31751e-010 -2.22167 -0.733487 0.20892 -2.03217e-016 0 -3.88251e-019 6.07712 0.226746 17.291 0.024791 3.06713 0.451145 -8.75074 -7.74148 -30.1308 2.03217e-016 0 3.88251e-019 5.05703 -5.98312 -32.8406 0.000841545 12.0548 -0.159049 3.84457 -9.5198 28.6243 
2.21089 82.7143 55.8494 -6.92229 2.32542 12.1974 -2.76538 -5.84434 -17.5265 1.10657 -6.47732 -5.15609 -7.33545 9.41275 -10.8332 16.63 25.5029 -25.2799 -0 0 0 -0 0 0 1.56061e-014 1.30388e-013 -2.87691e-013 104.817 54.471 -66.2167 -26.2131 -45.8487 95.2262 -1.62715 33.675 5.37308 2.62879e-010 4.25101e-010 1.07926e-010 4.61501e-010 8.03567e-010 1.78408e-010 2.62886e-010 4.25107e-010 1.07907e-010 7.73091 5.47488 0.417314 2.62876e-010 4.25108e-010 1.07926e-010 2.90554 0.965183 0.102902 2.6289e-010 4.2513e-010 1.07923e-010 10.2786 0.731801 0.0259123 2.62875e-010 4.25108e-010 1.07942e-010 2.22167 -0.733487 -0.20892 1.53555e-014 1.30416e-013 -2.8794e-013 51.9149 44.7722 -131.921 27.5627 -28.4424 -64.768 3.13306 -43.8815 7.76776 2.41723e-010 -3.18056e-012 1.25537e-009 3.73355e-010 -1.08584e-011 2.1754e-009 2.41713e-010 -3.18453e-012 1.25537e-009 -7.73091 5.47488 -0.417314 2.4172e-010 -3.1889e-012 1.25537e-009 -2.90554 0.965183 -0.102902 2.41711e-010 -3.1893e-012 1.25537e-009 -10.2786 0.731801 -0.0259123 2.41723e-010 -3.19208e-012 1.25536e-009 -2.22167 -0.733487 0.20892 -2.03217e-016 0 -3.88251e-019 6.03682 0.188812 17.2991 0.0245416 3.13371 0.453074 -8.7522 -7.74332 -30.1322 2.03217e-016 0 3.88251e-019 4.99275 -5.95975 -32.9086 0.000739796 12.0555 -0.159189 3.86276 -9.54061 28.7133 
2.18576 82.7141 55.8629 -6.92188 2.33808 12.1484 -2.82158 -5.84888 -17.6023 1.13261 -6.46284 -5.17608 -7.39064 9.46464 -10.8883 16.6998 25.3389 -25.3798 -0 0 0 -0 0 0 7.285e-014 1.08077e-013 -3.14451e-013 104.072 54.9494 -65.9206 -26.2395 -45.7938 95.1113 -1.80958 35.2066 5.69225 4.89857e-010 1.22997e-009 1.36551e-010 8.549e-010 2.22948e-009 2.21358e-010 4.89863e-010 1.22997e-009 1.36535e-010 7.73091 5.47488 0.417314 4.89852e-010 1.22997e-009 1.36552e-010 2.90554 0.965183 0.102902 4.89867e-010 1.22999e-009 1.36549e-010 10.2786 0.731801 0.0259123 4.89854e-010 1.22998e-009 1.36565e-010 2.22167 -0.733487 -0.20892 7.26313e-014 1.081e-013 -3.14696e-013 51.4267 44.769 -131.754 27.49 -28.138 -64.2781 3.47394 -45.5817 8.24931 4.56505e-010 -6.55201e-012 1.36221e-009 7.37141e-010 -1.62945e-011 2.36705e-009 4.56496e-010 -6.55634e-012 1.36221e-009 -7.73091 5.47488 -0.417314 4.56501e-010 -6.56045e-012 1.36221e-009 -2.90554 0.965183 -0.102902 4.56494e-010 -6.56092e-012 1.36221e-009 -10.2786 0.731801 -0.0259123 4.56506e-010 -6.56285e-012 1.3622e-009 -2.22167 -0.733487 0.20892 -2.03217e-016 0 -3.88251e-019 6.04616 0.145379 17.3092 0.0239354 3.19836 0.454468 -8.74126 -7.73608 -30.1116 2.03217e-016 0 3.88251e-019 4.97658 -5.91872 -33.0055 0.000264324 12.0433 -0.159157 3.9046 -9.59179 28.8582 
2.16283 82.714 55.8739 -6.94384 2.34913 12.0863 -2.83387 -5.85213 -17.6549 1.14193 -6.42357 -5.19125 -7.44701 9.55918 -10.9545 16.7521 25.0651 -25.4777 -0 0 0 -0 0 0 1.28948e-013 7.45369e-014 -2.99814e-013 103.269 55.4016 -65.5749 -26.2594 -45.7527 95.0249 -1.98533 36.6037 5.99277 6.8826e-010 2.24847e-009 1.38741e-010 1.19749e-009 4.01559e-009 2.18957e-010 6.88265e-010 2.24845e-009 1.38728e-010 7.73091 5.47488 0.417314 6.88253e-010 2.24846e-009 1.38741e-010 2.90554 0.965183 0.102902 6.8827e-010 2.24847e-009 1.3874e-010 10.2786 0.731801 0.0259123 6.88257e-010 2.24848e-009 1.38752e-010 2.22167 -0.733487 -0.20892 1.288e-013 7.45512e-014 -3.00059e-013 50.8806 44.8365 -131.491 27.4109 -27.8194 -63.7661 3.83824 -47.2333 8.74889 6.99807e-010 -2.07525e-011 1.35711e-009 1.15293e-009 -4.00802e-011 2.36646e-009 6.998e-010 -2.07562e-011 1.35711e-009 -7.73091 5.47488 -0.417314 6.99804e-010 -2.07593e-011 1.35711e-009 -2.90554 0.965183 -0.102902 6.99798e-010 -2.07596e-011 1.35711e-009 -10.2786 0.731801 -0.0259123 6.99811e-010 -2.07602e-011 1.3571e-009 -2.22167 -0.733487 0.20892 -2.03217e-016 0 -3.88251e-019 6.081 0.0938866 17.3182 0.023066 3.26952 0.455744 -8.72467 -7.72439 -30.0818 2.03217e-016 0 3.88251e-019 4.98172 -5.86721 -33.1284 -0.000471417 12.0241 -0.159038 3.96161 -9.66148 29.0416 
2.15654 82.715 55.8922 -6.97356 2.35793 12.0119 -2.82905 -5.85349 -17.6962 1.14953 -6.38581 -5.20351 -7.51483 9.66198 -11.0254 16.7999 24.7991 -25.5849 -0 0 0 -0 0 0 1.65123e-013 4.22889e-014 -2.49297e-013 102.462 55.8678 -65.2195 -26.2703 -45.7302 94.9773 -2.15935 37.9057 6.28242 8.14965e-010 3.07744e-009 1.25622e-010 1.415e-009 5.45934e-009 1.92066e-010 8.14968e-010 3.0774e-009 1.25613e-010 7.73091 5.47488 0.417314 8.14957e-010 3.07742e-009 1.25622e-010 2.90554 0.965183 0.102902 8.14974e-010 3.07741e-009 1.25622e-010 10.2786 0.731801 0.0259123 8.14962e-010 3.07744e-009 1.25631e-010 2.22167 -0.733487 -0.20892 1.65052e-013 4.22943e-014 -2.49545e-013 50.3429 44.9459 -131.212 27.3311 -27.5117 -63.2784 4.26031 -49.0063 9.31586 9.20283e-010 -4.08262e-011 1.24452e-009 1.53378e-009 -7.31974e-011 2.18012e-009 9.20277e-010 -4.08289e-011 1.24453e-009 -7.73091 5.47488 -0.417314 9.2028e-010 -4.08307e-011 1.24453e-009 -2.90554 0.965183 -0.102902 9.20276e-010 -4.08309e-011 1.24452e-009 -10.2786 0.731801 -0.0259123 9.20289e-010 -4.08299e-011 1.24452e-009 -2.22167 -0.733487 0.20892 -2.03217e-016 0 -3.88251e-019 6.12393 0.0468025 17.3271 0.0222294 3.33398 0.456701 -8.70137 -7.70736 -30.04 2.03217e-016 0 3.88251e-019 4.99616 -5.8086 -33.2506 -0.00127298 12.0023 -0.158888 4.02389 -9.73656 29.2366 
2.17191 82.7113 55.9037 -6.99643 2.36379 11.9259 -2.83395 -5.85237 -17.7375 1.17042 -6.37584 -5.2148 -7.60454 9.73869 -11.0943 16.8573 24.658 -25.7124 -0 0 0 -0 0 0 1.62598e-013 2.38545e-014 -1.6842e-013 101.707 56.3889 -64.8959 -26.27 -45.7313 94.9788 -2.33879 39.1519 6.57053 8.26849e-010 3.3137e-009 1.08323e-010 1.43319e-009 5.85814e-009 1.61544e-010 8.26851e-010 3.31365e-009 1.08317e-010 7.73091 5.47488 0.417314 8.2684e-010 3.31368e-009 1.08323e-010 2.90554 0.965183 0.102902 8.26857e-010 3.31365e-009 1.08324e-010 10.2786 0.731801 0.0259123 8.26846e-010 3.3137e-009 1.0833e-010 2.22167 -0.733487 -0.20892 1.62575e-013 2.38545e-014 -1.68669e-013 49.8815 45.0695 -131 27.2585 -27.2426 -62.8596 4.7959 -51.0692 10.0195 1.06659e-009 -6.18172e-011 1.02891e-009 1.79276e-009 -1.06628e-010 1.81456e-009 1.06658e-009 -6.18193e-011 1.02892e-009 -7.73091 5.47488 -0.417314 1.06658e-009 -6.182e-011 1.02891e-009 -2.90554 0.965183 -0.102902 1.06658e-009 -6.18201e-011 1.02891e-009 -10.2786 0.731801 -0.0259123 1.06659e-009 -6.18181e-011 1.02891e-009 -2.22167 -0.733487 0.20892 -2.03217e-016 0 -3.88251e-019 6.15757 0.0165929 17.337 0.0217229 3.37858 0.457136 -8.6703 -7.68407 -29.9834 2.03217e-016 0 3.88251e-019 5.00777 -5.74625 -33.3451 -0.00194605 11.9826 -0.158762 4.08125 -9.80413 29.4168 
2.19036 82.7054 55.9115 -7.01595 2.36218 11.8219 -2.84305 -5.84171 -17.7712 1.20591 -6.41821 -5.22275 -7.73792 9.77876 -11.1632 16.9541 24.7071 -25.8823 -0 0 0 -0 0 0 9.20841e-014 2.6948e-014 -2.20255e-014 101.03 56.9586 -64.65 -26.2543 -45.7642 95.0476 -2.52793 40.3844 6.86576 6.44459e-010 2.56754e-009 7.91614e-011 1.11365e-009 4.52226e-009 1.16595e-010 6.44461e-010 2.56751e-009 7.91563e-011 7.73091 5.47488 0.417314 6.44451e-010 2.56753e-009 7.91616e-011 2.90554 0.965183 0.102902 6.44467e-010 2.5675e-009 7.91625e-011 10.2786 0.731801 0.0259123 6.44456e-010 2.56754e-009 7.91682e-011 2.22167 -0.733487 -0.20892 9.20676e-014 2.69482e-014 -2.2274e-014 49.5171 45.2267 -130.873 27.1978 -27.0237 -62.5174 5.56612 -53.6806 11.0013 1.11382e-009 -8.71076e-011 6.05497e-010 1.89246e-009 -1.45535e-010 1.08907e-009 1.11382e-009 -8.71093e-011 6.05503e-010 -7.73091 5.47488 -0.417314 1.11382e-009 -8.71096e-011 6.055e-010 -2.90554 0.965183 -0.102902 1.11381e-009 -8.71096e-011 6.05496e-010 -10.2786 0.731801 -0.0259123 1.11383e-009 -8.71068e-011 6.05496e-010 -2.22167 -0.733487 0.20892 -2.03217e-016 0 -3.88251e-019 6.18794 0.00859632 17.3476 0.0218009 3.40059 0.456709 -8.62567 -7.64833 -29.9042 2.03217e-016 0 3.88251e-019 5.02625 -5.67881 -33.395 -0.002427 11.9658 -0.158649 4.13199 -9.86375 29.5715 
2.17337 82.7071 55.9306 -7.03749 2.35488 11.7018 -2.84626 -5.82415 -17.7947 1.24887 -6.49306 -5.2273 -7.90317 9.801 -11.2343 17.0758 24.8716 -26.083 -0 0 0 -0 0 0 -2.83098e-014 4.34328e-014 1.80621e-013 100.401 57.5617 -64.4516 -26.2255 -45.824 95.1733 -2.71996 41.5718 7.15981 3.13445e-010 1.14805e-009 3.57518e-011 5.35502e-010 1.99387e-009 5.15461e-011 3.13448e-010 1.14804e-009 3.57472e-011 7.73091 5.47488 0.417314 3.13438e-010 1.14806e-009 3.57522e-011 2.90554 0.965183 0.102902 3.13454e-010 1.14803e-009 3.5753e-011 10.2786 0.731801 0.0259123 3.13441e-010 1.14806e-009 3.57604e-011 2.22167 -0.733487 -0.20892 -2.83426e-014 4.34365e-014 1.80372e-013 49.2129 45.4239 -130.789 27.1468 -26.8422 -62.2266 6.63093 -56.6694 12.304 1.0931e-009 -1.17772e-010 7.22877e-012 1.88397e-009 -1.92206e-010 6.09909e-011 1.0931e-009 -1.17774e-010 7.23405e-012 -7.73091 5.47488 -0.417314 1.0931e-009 -1.17774e-010 7.23119e-012 -2.90554 0.965183 -0.102902 1.0931e-009 -1.17774e-010 7.2265e-012 -10.2786 0.731801 -0.0259123 1.09311e-009 -1.17771e-010 7.22497e-012 -2.22167 -0.733487 0.20892 -2.03217e-016 0 -3.88251e-019 6.22075 0.0154887 17.3584 0.0222481 3.40677 0.455624 -8.57 -7.60252 -29.8062 2.03217e-016 0 3.88251e-019 5.05365 -5.60521 -33.418 -0.00282339 11.9497 -0.158528 4.18113 -9.92137 29.7162 
